<?xml version="1.0" encoding="utf-8"?>
<!-- Generator: Adobe Illustrator 24.0.2, SVG Export Plug-In . SVG Version: 6.00 Build 0)  -->
<svg version="1.1" id="Animentor_Monochrome" xmlns="http://www.w3.org/2000/svg" xmlns:xlink="http://www.w3.org/1999/xlink" x="0px" y="0px"
	 viewBox="0 0 1146.4 1146.4" style="enable-background:new 0 0 1146.4 1146.4;" xml:space="preserve">
<g>
	<path d="M864.8,897.4c-172.3,23.7-247.3-22-314.9-75.2c-27.9-21.9-53.5-47-78.2-71.3c-18.1-17.7-36.3-35.6-55.6-52.4
		c8.5-25.1,16.3-54.2,23.4-85.4h139.4h285.4h1.9c19.2,0,34.7-15.5,34.7-34.7c0-19.2-15.5-34.7-34.7-34.7h-1.9H578.9H453.5
		c28.2-154.3,41.7-327,42.5-337.7c1.5-19.1-12.8-35.7-31.9-37.2c-19.1-1.5-35.7,12.8-37.2,31.9c-0.2,2.7-14.7,188.5-43.7,343h-48.8
		c-19.2,0-34.7,15.5-34.7,34.7c0,19.2,15.5,34.7,34.7,34.7h34.1c-3.6,14.8-7.3,28.8-11.2,41.8c-24.8-15-51.8-26.8-82.2-33.5
		c-31-6.8-60.9-4.6-86.4,6.3c-23.8,10.2-43.5,27.7-57,50.5c-29.1,49.2-23.7,113.1,13.1,155.2c13.9,15.9,31.6,27.4,51.2,33.9
		c17.6,6,36.8,7.9,56.1,5.2c28.4-4,55.3-17.1,80.2-39c19.9-17.5,38-40.5,54-68.5c12.2,11.3,24.5,23.4,37.2,35.8
		c26,25.5,53,51.9,83.8,76.1c38,29.9,81.4,60.1,140.9,78.5c38.7,11.9,81.4,17.9,129.1,17.9c30.1,0,62.2-2.4,96.5-7.1
		c3.7-0.5,7.2-1.6,10.3-3.1c13.5-6.2,22-20.8,19.8-36.3C901.3,908.1,883.8,894.8,864.8,897.4z M242.5,804c-0.4,0.1-0.9,0.1-1.3,0.1
		c-1.6-0.2-3.3-0.2-4.9-0.1c-9.3,0.4-18.2-1.6-25.8-5.6c-4.7-2.6-9-6-12.6-10c-17.1-19.5-19.4-50.7-5.6-74
		c10.3-17.5,27.3-26.6,49-26.6c6.2,0,12.8,0.8,19.7,2.3c25.9,5.7,48.8,16.5,70.5,30.9C305.9,769.6,273.9,799.6,242.5,804z"/>
	<path d="M578.9,380.8h287.3c19.1,0,34.6-15.5,34.6-34.6s-15.5-34.6-34.6-34.6H578.9c-19.1,0-34.6,15.5-34.6,34.6
		S559.7,380.8,578.9,380.8z"/>
	<path d="M1011.1,865.6c-18.6-4.6-37.4,6.6-42,25.2l-1,4c-4.6,18.6,6.6,37.4,25.2,42c2.8,0.7,5.6,1,8.4,1
		c15.5,0,29.6-10.5,33.6-26.2l1-4C1041,889.1,1029.7,870.2,1011.1,865.6z"/>
</g>
</svg>
