<?xml version="1.0" encoding="utf-8"?>
<!-- Generator: Adobe Illustrator 24.0.2, SVG Export Plug-In . SVG Version: 6.00 Build 0)  -->
<svg version="1.1" id="Animentor" xmlns="http://www.w3.org/2000/svg" xmlns:xlink="http://www.w3.org/1999/xlink" x="0px" y="0px"
	 viewBox="0 0 1146.4 1146.4" style="enable-background:new 0 0 1146.4 1146.4;" xml:space="preserve">
<style type="text/css">
	.background{fill:url(#backgroundGradient);}
	.turquoise{fill:#39BEB6;}
	.white{fill:#FFFFFF;}
</style>
<g>
	<linearGradient id="backgroundGradient" gradientUnits="userSpaceOnUse" x1="1267.9591" y1="-161.462" x2="11.7254" y2="1166.8506">
		<stop  offset="7.821229e-02" style="stop-color:#C91F5D"/>
		<stop  offset="0.2342" style="stop-color:#AD2362"/>
		<stop  offset="0.6005" style="stop-color:#77266C"/>
		<stop  offset="0.8654" style="stop-color:#562670"/>
		<stop  offset="1" style="stop-color:#492671"/>
	</linearGradient>
	<rect class="background" width="1146.4" height="1146.4"/>
	<g>
		<g>
			<path class="turquoise" d="M866.1,613.2H334.4c-19.2,0-34.7-15.5-34.7-34.7c0-19.2,15.5-34.7,34.7-34.7h531.8
				c19.2,0,34.7,15.5,34.7,34.7C900.9,597.6,885.3,613.2,866.1,613.2z"/>
		</g>
		<g>
			<path class="white" d="M864.3,613.2H578.9c-19.2,0-34.7-15.5-34.7-34.7c0-19.2,15.5-34.7,34.7-34.7h285.4
				c19.2,0,34.7,15.5,34.7,34.7C899,597.6,883.4,613.2,864.3,613.2z"/>
		</g>
		<g>
			<path class="white" d="M777.2,973.5c-47.7,0-90.4-5.9-129.1-17.9c-59.5-18.4-102.9-48.6-140.9-78.5c-30.8-24.2-57.7-50.6-83.8-76.1
				c-12.7-12.5-25-24.5-37.2-35.8c-16,28-34.1,50.9-54,68.5c-24.9,21.9-51.8,35-80.2,39c-40.5,5.6-80.2-8.8-106.3-38.7
				C109,791.9,103.6,728.2,132.6,679c13.5-22.8,33.1-40.2,56.9-50.3c25.5-10.9,55.4-13.1,86.3-6.3c30.1,6.6,56.9,18.3,81.4,33
				c46.4-155.6,69.5-451.2,69.7-454.6c1.5-19.1,18.1-33.4,37.2-31.9c19.1,1.5,33.4,18.1,31.9,37.2c-1.1,14.7-26,333.7-80.1,492.7
				c19.4,16.8,37.8,34.9,56,52.7c24.7,24.2,50.2,49.3,78.1,71.2c67.5,53.1,142.3,98.8,314.3,75.1c19-2.6,36.4,10.6,39,29.6
				c2.6,19-10.6,36.4-29.6,39C839.4,971.2,807.3,973.5,777.2,973.5z M241.2,687.8c-21.6,0-38.6,9.1-49,26.6
				c-13.8,23.4-11.5,54.5,5.6,74c10.7,12.2,27.4,18.1,44.6,15.7c31.4-4.4,63.4-34.4,89-83.1c-21.7-14.3-44.6-25.2-70.5-30.9
				C254,688.5,247.4,687.8,241.2,687.8z"/>
		</g>
		<g>
			<path class="turquoise" d="M777.5,973.3c-47.8,0-90.5-6-129.3-17.9C588.5,937,545,906.7,506.9,876.8c-30.9-24.3-57.8-50.7-83.9-76.3
				c-53.2-52.1-99.1-97.2-162.8-111.2c-31.1-6.8-55.5,1.8-68.8,24.3c-13.8,23.4-11.5,54.6,5.6,74.2c9.6,11,23.9,16.9,39.3,16.2
				c19.1-0.8,35.4,14,36.2,33.2c0.8,19.2-14,35.4-33.2,36.2c-36.6,1.6-71-12.9-94.6-39.8c-36.9-42.1-42.3-106-13.1-155.2
				c13.5-22.8,33.2-40.3,57-50.5c25.6-11,55.5-13.1,86.4-6.3c83.2,18.3,140.8,74.8,196.5,129.4c24.8,24.3,50.4,49.4,78.2,71.3
				c67.6,53.2,142.6,98.9,314.9,75.2c19-2.6,36.5,10.7,39.1,29.7c2.6,19-10.7,36.5-29.7,39.1C839.8,970.9,807.6,973.3,777.5,973.3z"
				/>
		</g>
		<g>
			<path class="white" d="M866.1,380.8H578.9c-19.1,0-34.6-15.5-34.6-34.6s15.5-34.6,34.6-34.6h287.3c19.1,0,34.6,15.5,34.6,34.6
				S885.3,380.8,866.1,380.8z"/>
		</g>
		<g>
			<path class="white" d="M1001.7,937.9c-2.8,0-5.6-0.3-8.4-1c-18.6-4.6-29.8-23.4-25.2-42l1-4c4.6-18.6,23.5-29.8,42-25.2
				c18.6,4.6,29.8,23.4,25.2,42l-1,4C1031.4,927.4,1017.3,937.9,1001.7,937.9z"/>
		</g>
	</g>
</g>
</svg>
